<svg width="32" height="33" viewBox="0 0 32 33" fill="none" xmlns="http://www.w3.org/2000/svg">
<g clip-path="url(#clip0_2376_2799)">
<path fill-rule="evenodd" clip-rule="evenodd" d="M16.0013 5.83398C12.2853 5.83398 8.98397 7.50998 6.6333 9.58465C5.45464 10.626 4.4813 11.794 3.79597 12.9593C3.1213 14.102 2.66797 15.3407 2.66797 16.5007C2.66797 17.6607 3.1213 18.8993 3.79597 20.042C4.4813 21.206 5.4533 22.3753 6.6333 23.4167C8.98397 25.4913 12.2866 27.1673 16.0013 27.1673C19.7173 27.1673 23.0186 25.4913 25.3693 23.4167C26.5493 22.3753 27.5213 21.206 28.2066 20.042C28.8813 18.8993 29.3346 17.6607 29.3346 16.5007C29.3346 15.3407 28.8813 14.102 28.2066 12.9593C27.5213 11.7953 26.5493 10.626 25.3693 9.58465C23.0186 7.50998 19.716 5.83398 16.0013 5.83398ZM18.668 16.5007C19.148 16.5007 19.5973 16.374 19.9866 16.1527C20.0577 16.9703 19.8755 17.7899 19.4649 18.5005C19.0542 19.211 18.435 19.7781 17.6911 20.1247C16.9472 20.4713 16.1147 20.5807 15.3065 20.4381C14.4983 20.2955 13.7535 19.9077 13.1732 19.3274C12.5929 18.7471 12.2052 18.0023 12.0625 17.1941C11.9199 16.3859 12.0293 15.5534 12.3759 14.8095C12.7226 14.0657 13.2896 13.4464 14.0001 13.0357C14.7107 12.6251 15.5304 12.4429 16.348 12.514C16.1168 12.9198 15.9962 13.3792 15.9984 13.8463C16.0005 14.3133 16.1253 14.7716 16.3602 15.1752C16.5951 15.5789 16.9319 15.9138 17.3369 16.1464C17.7419 16.379 18.2009 16.5012 18.668 16.5007Z" fill="black"/>
</g>
<defs>
<clipPath id="clip0_2376_2799">
<rect width="32" height="32" fill="white" transform="translate(0 0.5)"/>
</clipPath>
</defs>
</svg>

