<svg width="24" height="24" viewBox="0 0 24 24" fill="none" xmlns="http://www.w3.org/2000/svg">
<rect x="0.275978" y="0.275978" width="23.448" height="23.448" rx="11.724" stroke="#E7E7E7" stroke-width="0.551955"/>
<g clip-path="url(#clip0_2376_2904)">
<path fill-rule="evenodd" clip-rule="evenodd" d="M11.999 6.48047C12.5889 6.48047 13.194 6.49565 13.7805 6.52049L14.4732 6.5536L15.1362 6.59293L15.7572 6.63502L16.3243 6.67917C16.9398 6.72628 17.5189 6.98892 17.9598 7.42089C18.4008 7.85286 18.6752 8.42648 18.735 9.04085L18.7626 9.33408L18.8143 9.96193C18.8626 10.6125 18.8985 11.3218 18.8985 12C18.8985 12.6782 18.8626 13.3875 18.8143 14.0381L18.7626 14.666C18.7536 14.7667 18.7446 14.864 18.735 14.9592C18.6752 15.5737 18.4006 16.1474 17.9596 16.5794C17.5185 17.0113 16.9392 17.2739 16.3236 17.3209L15.7579 17.3643L15.1369 17.4071L14.4732 17.4464L13.7805 17.4796C13.187 17.5053 12.5931 17.5187 11.999 17.5196C11.405 17.5187 10.8111 17.5053 10.2176 17.4796L9.52491 17.4464L8.86187 17.4071L8.24092 17.3643L7.67379 17.3209C7.05833 17.2738 6.47919 17.0111 6.03826 16.5792C5.59733 16.1472 5.32286 15.5736 5.26313 14.9592L5.23553 14.666L5.18378 14.0381C5.13103 13.36 5.10295 12.6802 5.09961 12C5.09961 11.3218 5.13549 10.6125 5.18378 9.96193L5.23553 9.33408C5.2445 9.23334 5.25347 9.13606 5.26313 9.04085C5.32283 8.42659 5.59721 7.85305 6.038 7.4211C6.47878 6.98914 7.05776 6.72644 7.6731 6.67917L8.23954 6.63502L8.86049 6.59293L9.52422 6.5536L10.2169 6.52049C10.8106 6.4947 11.4048 6.48136 11.999 6.48047ZM10.6192 10.3269V13.6731C10.6192 13.9919 10.9641 14.1906 11.2401 14.0319L14.1379 12.3588C14.2009 12.3225 14.2533 12.2702 14.2897 12.2072C14.3261 12.1442 14.3453 12.0728 14.3453 12C14.3453 11.9273 14.3261 11.8558 14.2897 11.7928C14.2533 11.7298 14.2009 11.6775 14.1379 11.6412L11.2401 9.96882C11.1772 9.93248 11.1057 9.91335 11.0331 9.91336C10.9604 9.91338 10.889 9.93253 10.826 9.96889C10.7631 10.0053 10.7108 10.0576 10.6745 10.1205C10.6382 10.1835 10.6191 10.2549 10.6192 10.3276V10.3269Z" fill="black"/>
</g>
<defs>
<clipPath id="clip0_2376_2904">
<rect width="16.5587" height="16.5587" fill="white" transform="translate(3.7207 3.7207)"/>
</clipPath>
</defs>
</svg>
