<svg width="32" height="33" viewBox="0 0 32 33" fill="none" xmlns="http://www.w3.org/2000/svg">
<g clip-path="url(#clip0_2376_2821)">
<path fill-rule="evenodd" clip-rule="evenodd" d="M26.8394 4.71411C26.0893 3.96423 25.0721 3.54297 24.0114 3.54297C22.9508 3.54297 21.9335 3.96423 21.1834 4.71411L20.2407 5.65811L26.8407 12.2581L27.7821 11.3154C28.1536 10.944 28.4483 10.503 28.6493 10.0177C28.8504 9.53232 28.9539 9.01213 28.9539 8.48678C28.9539 7.96144 28.8504 7.44124 28.6493 6.95589C28.4483 6.47054 28.1536 6.02956 27.7821 5.65811L26.8394 4.71411ZM24.9541 14.1434L18.3541 7.54345L6.23408 19.6648C5.96886 19.9301 5.78358 20.2646 5.69941 20.6301L4.32741 26.5701C4.27629 26.7906 4.28216 27.0205 4.34445 27.2382C4.40675 27.4558 4.52343 27.654 4.68349 27.814C4.84356 27.9741 5.04174 28.0908 5.25937 28.1531C5.47699 28.2154 5.7069 28.2212 5.92741 28.1701L11.8687 26.7994C12.2338 26.715 12.5678 26.5298 12.8327 26.2648L24.9541 14.1434Z" fill="black"/>
</g>
<defs>
<clipPath id="clip0_2376_2821">
<rect width="32" height="32" fill="white" transform="translate(0 0.5)"/>
</clipPath>
</defs>
</svg>
