<svg width="32" height="33" viewBox="0 0 32 33" fill="none" xmlns="http://www.w3.org/2000/svg">
<path fill-rule="evenodd" clip-rule="evenodd" d="M10.3797 2.3077C9.90549 2.22404 9.4194 2.23463 8.94924 2.33885C8.47908 2.44307 8.03406 2.63889 7.63958 2.91512C7.24511 3.19135 6.90891 3.54259 6.6502 3.94876C6.39148 4.35494 6.21531 4.8081 6.13174 5.28237L2.89174 23.665C2.72276 24.6226 2.94108 25.6081 3.49868 26.4048C4.05628 27.2014 4.90749 27.744 5.86507 27.913L21.6224 30.6917C22.5798 30.8603 23.565 30.6418 24.3613 30.0842C25.1577 29.5267 25.7 28.6757 25.8691 27.7184L29.1117 9.33437C29.1954 8.86012 29.1848 8.37403 29.0806 7.90387C28.9764 7.43371 28.7806 6.98868 28.5043 6.59421C28.2281 6.19974 27.8769 5.86354 27.4707 5.60482C27.0645 5.3461 26.6113 5.16993 26.1371 5.08637L10.3797 2.3077ZM12.0811 8.0237C11.9506 7.99808 11.8163 7.99873 11.6861 8.02563C11.5558 8.05253 11.4323 8.10514 11.3226 8.18036C11.213 8.25559 11.1194 8.35194 11.0475 8.46376C10.9755 8.57558 10.9266 8.70063 10.9035 8.83159C10.8805 8.96255 10.8838 9.0968 10.9132 9.22648C10.9427 9.35615 10.9977 9.47865 11.0751 9.5868C11.1524 9.69495 11.2506 9.78658 11.3638 9.85634C11.477 9.92609 11.603 9.97256 11.7344 9.99304L22.2384 11.8464C22.4997 11.8923 22.7686 11.8326 22.9859 11.6803C23.2032 11.5281 23.3511 11.2957 23.3971 11.0344C23.443 10.773 23.3833 10.5042 23.231 10.2869C23.0788 10.0696 22.8464 9.92167 22.5851 9.8757L12.0811 8.0237ZM9.99708 14.0877C10.0432 13.8266 10.1912 13.5945 10.4085 13.4424C10.6258 13.2904 10.8946 13.2309 11.1557 13.277L21.6597 15.129C21.7911 15.1495 21.9171 15.196 22.0303 15.2657C22.1436 15.3355 22.2417 15.4271 22.3191 15.5353C22.3965 15.6434 22.4515 15.7659 22.4809 15.8956C22.5104 16.0253 22.5137 16.1595 22.4906 16.2905C22.4676 16.4214 22.4186 16.5465 22.3467 16.6583C22.2747 16.7701 22.1812 16.8665 22.0715 16.9417C21.9619 17.0169 21.8383 17.0695 21.7081 17.0964C21.5778 17.1233 21.4436 17.124 21.3131 17.0984L10.8077 15.245C10.5469 15.1989 10.315 15.051 10.163 14.8341C10.011 14.6171 9.95134 14.3486 9.99708 14.0877ZM10.2291 18.5277C10.0986 18.5021 9.9643 18.5027 9.83408 18.5296C9.70385 18.5565 9.58029 18.6091 9.47064 18.6844C9.36099 18.7596 9.26744 18.8559 9.19547 18.9678C9.1235 19.0796 9.07456 19.2046 9.05151 19.3356C9.02845 19.4666 9.03175 19.6008 9.06121 19.7305C9.09066 19.8601 9.14569 19.9826 9.22306 20.0908C9.30043 20.1989 9.3986 20.2906 9.51181 20.3603C9.62503 20.4301 9.75102 20.4766 9.88241 20.497L16.4477 21.6557C16.7091 21.7017 16.978 21.6419 17.1952 21.4897C17.4125 21.3374 17.5604 21.105 17.6064 20.8437C17.6524 20.5824 17.5927 20.3135 17.4404 20.0962C17.2881 19.8789 17.0557 19.731 16.7944 19.685L10.2291 18.5277Z" fill="black"/>
</svg>
