<svg width="32" height="33" viewBox="0 0 32 33" fill="none" xmlns="http://www.w3.org/2000/svg">
<path d="M28.9995 21H8.79697C9.07197 20.4475 9.34822 19.8825 9.62072 19.31L9.71947 19.1025C11.4095 18.8963 13.3057 17.69 15.392 15.4937C16.0557 16.9937 17.142 18.585 18.8407 18.905C19.4982 19.03 20.5295 19.0037 21.707 18.1775C22.1152 17.8877 22.4922 17.5564 22.832 17.1887C23.862 18.15 25.7095 19 28.9995 19C29.3973 19 29.7788 18.842 30.0601 18.5607C30.3414 18.2794 30.4995 17.8978 30.4995 17.5C30.4995 17.1022 30.3414 16.7206 30.0601 16.4393C29.7788 16.158 29.3973 16 28.9995 16C25.1245 16 24.572 14.6888 24.4995 14.4525C24.5607 13.7812 24.1557 13.2325 23.5145 12.9987C22.8732 12.765 22.1182 13.0962 21.737 13.6812C20.487 15.5962 19.6595 16.0088 19.3932 15.9575C18.7832 15.8438 17.8445 14.015 17.4632 12.1962C17.4045 11.9178 17.2679 11.6618 17.0691 11.4581C16.8704 11.2544 16.6178 11.1114 16.3409 11.0459C16.0639 10.9803 15.7741 10.9949 15.5051 11.088C15.2362 11.181 14.9992 11.3486 14.822 11.5712C13.5345 13.1862 12.427 14.295 11.5132 15.0162C14.162 8.39875 13.6382 5.98875 12.9345 4.735C12.3095 3.61375 11.1757 3 9.74947 3C7.48947 3 5.66947 5.06875 4.87447 8.5325C4.44322 10.42 4.37447 12.5087 4.69197 14.2638C5.02322 16.1025 5.73697 17.4762 6.77697 18.2925C6.33572 19.2225 5.87447 20.1325 5.43322 21H2.99947C2.60164 21 2.22011 21.158 1.93881 21.4393C1.6575 21.7206 1.49947 22.1022 1.49947 22.5C1.49947 22.8978 1.6575 23.2794 1.93881 23.5607C2.22011 23.842 2.60164 24 2.99947 24H3.83697C2.62447 26.2087 1.73072 27.7 1.71197 27.7262C1.60891 27.895 1.54024 28.0825 1.50992 28.278C1.4796 28.4734 1.48822 28.6729 1.53529 28.865C1.58236 29.057 1.66695 29.2379 1.78419 29.3972C1.90143 29.5564 2.049 29.691 2.21842 29.793C2.38784 29.895 2.57576 29.9625 2.77137 29.9916C2.96698 30.0207 3.16641 30.0109 3.3582 29.9626C3.54998 29.9143 3.73033 29.8286 3.88887 29.7104C4.04741 29.5922 4.181 29.4438 4.28197 29.2738C4.36322 29.1438 5.65322 27 7.24947 24H28.9995C29.3973 24 29.7788 23.842 30.0601 23.5607C30.3414 23.2794 30.4995 22.8978 30.4995 22.5C30.4995 22.1022 30.3414 21.7206 30.0601 21.4393C29.7788 21.158 29.3973 21 28.9995 21ZM7.80322 9.2C8.22072 7.375 9.05572 6 9.74947 6C10.2132 6 10.2857 6.125 10.3295 6.205C10.5082 6.52125 11.1482 8.33875 8.14947 15.3025C7.90603 14.8068 7.73753 14.2777 7.64947 13.7325C7.40322 12.3612 7.45947 10.7087 7.80322 9.2Z" fill="black"/>
</svg>
