<svg width="32" height="33" viewBox="0 0 32 33" fill="none" xmlns="http://www.w3.org/2000/svg">
<g clip-path="url(#clip0_2376_2833)">
<path d="M14.559 4.32361C14.7057 4.07182 14.9159 3.86291 15.1686 3.71771C15.4213 3.57251 15.7076 3.49609 15.999 3.49609C16.2904 3.49609 16.5768 3.57251 16.8294 3.71771C17.0821 3.86291 17.2923 4.07182 17.439 4.32361L21.1657 10.7209L28.403 12.2889C28.6877 12.3508 28.9512 12.4862 29.1672 12.6817C29.3833 12.8771 29.5443 13.1258 29.6343 13.4028C29.7243 13.6799 29.74 13.9758 29.68 14.2608C29.62 14.5459 29.4864 14.8103 29.2923 15.0276L24.359 20.5489L25.1057 27.9156C25.1351 28.2057 25.088 28.4984 24.9689 28.7646C24.8499 29.0307 24.6631 29.261 24.4272 29.4323C24.1913 29.6037 23.9146 29.7102 23.6247 29.7412C23.3347 29.7722 23.0418 29.7266 22.775 29.6089L15.999 26.6223L9.223 29.6089C8.95623 29.7266 8.66326 29.7722 8.37334 29.7412C8.08343 29.7102 7.80671 29.6037 7.57083 29.4323C7.33495 29.261 7.14815 29.0307 7.0291 28.7646C6.91004 28.4984 6.86288 28.2057 6.89234 27.9156L7.639 20.5489L2.70567 15.0289C2.51131 14.8116 2.37734 14.5472 2.31716 14.2619C2.25697 13.9766 2.27266 13.6806 2.36266 13.4033C2.45267 13.126 2.61384 12.8771 2.83008 12.6816C3.04632 12.4861 3.31007 12.3507 3.595 12.2889L10.8323 10.7209L14.559 4.32361Z" fill="black"/>
</g>
<defs>
<clipPath id="clip0_2376_2833">
<rect width="32" height="32" fill="white" transform="translate(0 0.5)"/>
</clipPath>
</defs>
</svg>
