<svg width="24" height="24" viewBox="0 0 24 24" fill="none" xmlns="http://www.w3.org/2000/svg">
<rect x="0.275978" y="0.275978" width="23.448" height="23.448" rx="11.724" stroke="#E7E7E7" stroke-width="0.551955"/>
<path d="M12.6282 5.87988C13.3168 5.88172 13.6662 5.88539 13.968 5.89396L14.0867 5.89824C14.2238 5.90314 14.3591 5.90926 14.5225 5.91661C15.1738 5.94721 15.6181 6.05004 16.008 6.20122C16.412 6.35668 16.7523 6.56724 17.0926 6.90693C17.4038 7.21291 17.6447 7.58302 17.7983 7.99152C17.9495 8.38141 18.0523 8.82577 18.0829 9.47762C18.0903 9.64043 18.0964 9.7757 18.1013 9.91342L18.105 10.0322C18.1142 10.3333 18.1178 10.6828 18.1191 11.3714L18.1197 11.828V12.6298C18.1212 13.0762 18.1165 13.5227 18.1056 13.969L18.1019 14.0877C18.097 14.2254 18.0909 14.3607 18.0836 14.5235C18.0529 15.1754 17.9489 15.6191 17.7983 16.0096C17.6451 16.4183 17.4042 16.7886 17.0926 17.0942C16.7866 17.4053 16.4165 17.6461 16.008 17.7999C15.6181 17.9511 15.1738 18.0539 14.5225 18.0845C14.3773 18.0914 14.232 18.0975 14.0867 18.1029L13.968 18.1066C13.6662 18.1151 13.3168 18.1194 12.6282 18.1207L12.1716 18.1213H11.3704C10.9237 18.1228 10.4771 18.1181 10.0306 18.1072L9.91182 18.1035C9.76652 18.098 9.62125 18.0917 9.47602 18.0845C8.82478 18.0539 8.38042 17.9511 7.98992 17.7999C7.58147 17.6465 7.2115 17.4057 6.90595 17.0942C6.59443 16.7884 6.35339 16.4182 6.19962 16.0096C6.04844 15.6197 5.94561 15.1754 5.91501 14.5235C5.90819 14.3783 5.90207 14.233 5.89664 14.0877L5.89358 13.969C5.88231 13.5227 5.8772 13.0762 5.87828 12.6298V11.3714C5.87657 10.9249 5.88106 10.4785 5.89175 10.0322L5.89603 9.91342C5.90093 9.7757 5.90705 9.64043 5.91439 9.47762C5.945 8.82577 6.04783 8.38202 6.19901 7.99152C6.35271 7.5826 6.59423 7.21237 6.90656 6.90693C7.21204 6.59568 7.58176 6.35484 7.98992 6.20122C8.38042 6.05004 8.82417 5.94721 9.47602 5.91661C9.63883 5.90926 9.77471 5.90314 9.91182 5.89824L10.0306 5.89457C10.4769 5.8837 10.9233 5.879 11.3698 5.88049L12.6282 5.87988ZM11.999 8.94023C11.1873 8.94023 10.4089 9.26266 9.83498 9.83658C9.26106 10.4105 8.93863 11.1889 8.93863 12.0006C8.93863 12.8122 9.26106 13.5906 9.83498 14.1646C10.4089 14.7385 11.1873 15.0609 11.999 15.0609C12.8106 15.0609 13.589 14.7385 14.163 14.1646C14.7369 13.5906 15.0593 12.8122 15.0593 12.0006C15.0593 11.1889 14.7369 10.4105 14.163 9.83658C13.589 9.26266 12.8106 8.94023 11.999 8.94023ZM11.999 10.1644C12.2401 10.1643 12.4789 10.2118 12.7017 10.304C12.9245 10.3963 13.1269 10.5315 13.2975 10.702C13.468 10.8724 13.6033 11.0748 13.6956 11.2976C13.7879 11.5204 13.8354 11.7591 13.8355 12.0003C13.8355 12.2414 13.7881 12.4802 13.6958 12.703C13.6036 12.9258 13.4684 13.1282 13.2979 13.2988C13.1274 13.4693 12.925 13.6046 12.7022 13.6969C12.4795 13.7892 12.2407 13.8367 11.9996 13.8368C11.5126 13.8368 11.0455 13.6433 10.7012 13.299C10.3568 12.9546 10.1634 12.4876 10.1634 12.0006C10.1634 11.5136 10.3568 11.0465 10.7012 10.7022C11.0455 10.3578 11.5126 10.1644 11.9996 10.1644M15.2129 8.02212C15.01 8.02212 14.8154 8.10273 14.6719 8.24621C14.5285 8.38969 14.4479 8.5843 14.4479 8.78721C14.4479 8.99012 14.5285 9.18473 14.6719 9.32821C14.8154 9.47169 15.01 9.5523 15.2129 9.5523C15.4159 9.5523 15.6105 9.47169 15.7539 9.32821C15.8974 9.18473 15.978 8.99012 15.978 8.78721C15.978 8.5843 15.8974 8.38969 15.7539 8.24621C15.6105 8.10273 15.4159 8.02212 15.2129 8.02212Z" fill="black"/>
</svg>
