<svg width="24" height="24" viewBox="0 0 24 24" fill="none" xmlns="http://www.w3.org/2000/svg">
<rect x="0.275978" y="0.275978" width="23.448" height="23.448" rx="11.724" stroke="#E7E7E7" stroke-width="0.551955"/>
<g clip-path="url(#clip0_2376_2899)">
<path fill-rule="evenodd" clip-rule="evenodd" d="M12 5.09961C10.9021 5.09961 9.84912 5.53575 9.07278 6.31209C8.29645 7.08843 7.8603 8.14137 7.8603 9.23927V10.5329L7.23935 10.0672C7.16687 10.0128 7.08439 9.97329 6.99662 9.9508C6.90885 9.92832 6.81751 9.92334 6.72782 9.93615C6.63812 9.94896 6.55183 9.97932 6.47387 10.0255C6.3959 10.0716 6.3278 10.1327 6.27343 10.2052C6.21907 10.2777 6.17952 10.3602 6.15703 10.4479C6.13454 10.5357 6.12957 10.627 6.14238 10.7167C6.15519 10.8064 6.18555 10.8927 6.23171 10.9707C6.27787 11.0486 6.33894 11.1168 6.41142 11.1711L7.69886 12.137C7.39252 12.9429 6.64531 13.786 5.43584 14.5125C5.35651 14.5612 5.28774 14.6253 5.23358 14.701C5.17943 14.7767 5.14099 14.8625 5.12054 14.9533C5.10009 15.0441 5.09804 15.1381 5.11451 15.2297C5.13098 15.3213 5.16564 15.4087 5.21644 15.4867C5.9878 16.6438 7.21176 17.5186 8.55025 17.5186C9.78111 17.5186 10.6249 18.8985 12 18.8985C13.3874 18.8985 14.214 17.5186 15.4497 17.5186C16.7882 17.5186 18.0121 16.6438 18.7835 15.4867C18.8343 15.4087 18.869 15.3213 18.8854 15.2297C18.9019 15.1381 18.8998 15.0441 18.8794 14.9533C18.8589 14.8625 18.8205 14.7767 18.7663 14.701C18.7122 14.6253 18.6434 14.5612 18.5641 14.5125C17.3546 13.786 16.6074 12.9429 16.3011 12.137L17.5885 11.1711C17.7349 11.0613 17.8317 10.8979 17.8576 10.7167C17.8834 10.5356 17.8363 10.3516 17.7265 10.2052C17.6167 10.0588 17.4533 9.96203 17.2721 9.93615C17.091 9.91027 16.907 9.95741 16.7606 10.0672L16.1396 10.5329V9.23927C16.1396 8.14137 15.7035 7.08843 14.9272 6.31209C14.1508 5.53575 13.0979 5.09961 12 5.09961Z" fill="black"/>
</g>
<defs>
<clipPath id="clip0_2376_2899">
<rect width="16.5587" height="16.5587" fill="white" transform="translate(3.7207 3.7207)"/>
</clipPath>
</defs>
</svg>
