<svg width="24" height="24" viewBox="0 0 24 24" fill="none" xmlns="http://www.w3.org/2000/svg">
<rect x="0.275978" y="0.275978" width="23.448" height="23.448" rx="11.724" stroke="#E7E7E7" stroke-width="0.551955"/>
<path d="M20.4745 12.487C20.2231 14.4138 18.4947 15.9047 16.4027 15.9047C14.3062 15.9047 12.5823 14.4138 12.3309 12.487H10.625C10.8809 15.3066 13.3724 17.5196 16.4027 17.5196C19.433 17.5196 21.92 15.3066 22.1804 12.487H20.4745ZM16.4027 8.09532C18.2837 8.09532 19.8729 9.30005 20.3533 10.9448H22.0951C21.5788 8.39864 19.2264 6.48047 16.4027 6.48047C13.5789 6.48047 11.2266 8.39864 10.7103 10.9448H12.4521C12.9325 9.30433 14.5217 8.09532 16.4027 8.09532Z" fill="black"/>
<path d="M11.8489 6.68848L8.88594 10.3838L8.87247 10.4009C8.85451 10.4266 8.83207 10.4565 8.80962 10.4778C8.65698 10.6573 8.47741 10.8153 8.26642 10.9478C7.84892 11.2126 7.3551 11.3536 6.83434 11.3536C6.31358 11.3536 5.81976 11.2126 5.40226 10.9478C5.19127 10.8153 5.0117 10.6573 4.85906 10.4821C4.83661 10.4565 4.81866 10.4266 4.79621 10.4009L1.81982 6.68848H4.18118L6.83434 9.99935L9.49199 6.68848H11.8489Z" fill="black"/>
<path d="M11.8489 17.2965H9.49199L6.83434 13.9856L4.18118 17.2965H1.81982L4.78274 13.6011L4.79621 13.584C4.81417 13.5584 4.83662 13.5285 4.85457 13.5071C5.00721 13.3277 5.18678 13.1696 5.39777 13.0372C5.81528 12.7723 6.3091 12.6313 6.82985 12.6313C7.35061 12.6313 7.84443 12.7723 8.26193 13.0372C8.47292 13.1696 8.6525 13.3277 8.80513 13.5029C8.82758 13.5285 8.85002 13.5541 8.86798 13.5798L11.8489 17.2965Z" fill="black"/>
</svg>
