<svg width="24" height="24" viewBox="0 0 24 24" fill="none" xmlns="http://www.w3.org/2000/svg">
<rect x="0.275978" y="0.275978" width="23.448" height="23.448" rx="11.724" stroke="#E7E7E7" stroke-width="0.551955"/>
<path d="M15.1747 7.73666C14.7031 7.19824 14.4432 6.50679 14.4434 5.79102H12.3114V14.3463C12.295 14.8093 12.0995 15.2478 11.7662 15.5695C11.4329 15.8913 10.9877 16.0711 10.5245 16.0712C9.54476 16.0712 8.73062 15.2708 8.73062 14.2773C8.73062 13.0906 9.87593 12.2006 11.0557 12.5663V10.386C8.67543 10.0687 6.5918 11.9177 6.5918 14.2773C6.5918 16.5748 8.49604 18.21 10.5176 18.21C12.684 18.21 14.4434 16.4506 14.4434 14.2773V9.93758C15.3079 10.5584 16.3458 10.8915 17.4101 10.8897V8.75777C17.4101 8.75777 16.113 8.81987 15.1747 7.73666Z" fill="black"/>
</svg>
