<svg width="28" height="27" viewBox="0 0 28 27" fill="none" xmlns="http://www.w3.org/2000/svg">
<path d="M12.559 1.32361C12.7057 1.07182 12.9159 0.862906 13.1686 0.717706C13.4213 0.572505 13.7076 0.496094 13.999 0.496094C14.2904 0.496094 14.5768 0.572505 14.8294 0.717706C15.0821 0.862906 15.2923 1.07182 15.439 1.32361L19.1657 7.72094L26.403 9.28894C26.6877 9.3508 26.9512 9.48621 27.1672 9.68165C27.3833 9.8771 27.5443 10.1258 27.6343 10.4028C27.7243 10.6799 27.74 10.9758 27.68 11.2608C27.62 11.5459 27.4864 11.8103 27.2923 12.0276L22.359 17.5489L23.1057 24.9156C23.1351 25.2057 23.088 25.4984 22.9689 25.7646C22.8499 26.0307 22.6631 26.261 22.4272 26.4323C22.1913 26.6037 21.9146 26.7102 21.6247 26.7412C21.3347 26.7722 21.0418 26.7266 20.775 26.6089L13.999 23.6223L7.223 26.6089C6.95623 26.7266 6.66326 26.7722 6.37334 26.7412C6.08343 26.7102 5.80671 26.6037 5.57083 26.4323C5.33495 26.261 5.14815 26.0307 5.0291 25.7646C4.91004 25.4984 4.86288 25.2057 4.89234 24.9156L5.639 17.5489L0.70567 12.0289C0.511307 11.8116 0.377344 11.5472 0.317155 11.2619C0.256966 10.9766 0.272657 10.6806 0.362662 10.4033C0.452666 10.126 0.613835 9.87714 0.830078 9.68161C1.04632 9.48607 1.31007 9.35067 1.595 9.28894L8.83234 7.72094L12.559 1.32361Z" fill="black"/>
</svg>
